# This file uses meters as units for non-parametric coordinates.

g default
v -4.571313 59.223045 75.675903
v -4.571313 53.269337 66.060333
v -4.571313 44.244122 59.244801
v -4.571312 33.366306 56.149796
v -4.571311 22.105001 57.193306
v -4.571313 11.981100 62.234406
v -4.571313 4.361906 70.592270
v -4.571313 0.276426 81.138107
v -4.571313 0.276426 92.447662
v -4.571313 4.361906 102.993500
v -4.571313 11.981100 111.351364
v -4.571311 22.104994 116.392464
v -4.571312 33.366299 117.435982
v -4.571313 44.244118 114.340973
v -4.571313 53.269337 107.525444
v -4.571313 59.223049 97.909866
v -4.571313 61.301170 86.792885
v -0.870254 54.094418 77.681061
v -0.870269 49.214539 69.799835
v -0.870267 30.574064 86.792885
v -0.870265 41.817200 64.213608
v -0.870270 32.901398 61.676865
v -0.870275 23.671289 62.532146
v -0.870250 15.373426 66.664001
v -0.870254 9.128483 73.514359
v -0.870254 5.779908 82.158058
v -0.870254 5.779908 91.427719
v -0.870254 9.128483 100.071419
v -0.870250 15.373426 106.921776
v -0.870276 23.671289 111.053635
v -0.870270 32.901398 111.908913
v -0.870265 41.817200 109.372162
v -0.870261 49.214539 103.785942
v -0.870254 54.094418 95.904716
v -0.870254 55.797691 86.792885
v 1.506491 59.223076 75.675903
v 2.588341 58.196812 76.073479
v 1.506478 53.269329 66.060326
v 2.588326 52.455986 66.801781
v 1.506481 44.244122 59.244789
v 2.588329 43.753548 60.229992
v 1.506478 33.366299 56.149803
v 2.588325 33.264751 57.245693
v 1.506472 22.105001 57.193298
v 2.588320 22.406191 58.251869
v 1.506498 11.981100 62.234413
v 2.588345 12.644351 63.112701
v 1.506493 4.361893 70.592270
v 2.588341 5.297629 71.171661
v 1.506494 0.276426 81.138107
v 2.588341 1.358273 81.340340
v 1.506494 0.276426 92.447662
v 2.588341 1.358273 92.245430
v 1.506493 4.361893 102.993500
v 2.588341 5.297629 102.414116
v 1.506498 11.981100 111.351364
v 2.588345 12.644352 110.473076
v 1.506469 22.105000 116.392479
v 2.588318 22.406191 115.333908
v 1.506478 33.366299 117.435974
v 2.588325 33.264748 116.340080
v 1.506481 44.244122 114.340981
v 2.588329 43.753548 113.355774
v 1.506486 53.269329 107.525452
v 2.588333 52.455986 106.783989
v 1.506491 59.223076 97.909874
v 2.588341 58.196812 97.512299
v 1.506493 61.301174 86.792885
v 2.588341 60.200588 86.792885
v 1.896691 54.094418 77.681061
v 2.588341 54.750534 77.426880
v 1.896676 49.214539 69.799835
v 2.588326 49.734528 69.325798
v 1.896680 41.817200 64.213608
v 2.588329 42.130833 63.583744
v 1.896675 32.901398 61.676865
v 2.588325 32.966320 60.976234
v 1.896670 23.671289 62.532146
v 2.588320 23.478731 61.855377
v 1.896695 15.373426 66.664001
v 2.588345 14.949394 66.102493
v 1.896691 9.128483 73.514359
v 2.588341 8.530244 73.143944
v 1.896691 5.779908 82.158058
v 2.588341 5.088259 82.028763
v 1.896691 5.779908 91.427719
v 2.588341 5.088259 91.557007
v 1.896691 9.128483 100.071419
v 2.588341 8.530244 100.441833
v 1.896695 15.373426 106.921776
v 2.588345 14.949394 107.483284
v 1.896669 23.671289 111.053635
v 2.588318 23.478731 111.730400
v 1.896675 32.901398 111.908913
v 2.588325 32.966320 112.609543
v 1.896680 41.817200 109.372162
v 2.588329 42.130836 110.002022
v 1.896684 49.214539 103.785942
v 2.588333 49.734528 104.259972
v 1.896691 54.094418 95.904716
v 2.588341 54.750534 96.158897
v 1.896691 55.797691 86.792885
v 2.588341 56.501320 86.792885
vt 0.683932 0.250193
vt 0.675243 0.237852
vt 0.654477 0.447111
vt 0.694084 0.261361
vt 0.705544 0.271184
vt 0.718132 0.279510
vt 0.731657 0.286210
vt 0.745914 0.291191
vt 0.685215 0.096480
vt 0.676319 0.108913
vt 0.669001 0.122119
vt 0.663383 0.136128
vt 0.659547 0.150725
vt 0.657552 0.165686
vt 0.657427 0.180778
vt 0.659174 0.195770
vt 0.662768 0.210429
vt 0.668152 0.224529
vt 0.877923 0.351761
vt 0.768400 0.196337
vt 0.783330 0.186035
vt 0.877923 0.332939
vt 0.877923 0.370583
vt 0.750759 0.200548
vt 0.793531 0.171034
vt 0.877923 0.314117
vt 0.797623 0.153359
vt 0.877923 0.295295
vt 0.795055 0.135400
vt 0.877923 0.276473
vt 0.786171 0.119579
vt 0.877923 0.257651
vt 0.772172 0.108034
vt 0.877923 0.238829
vt 0.754945 0.102325
vt 0.877923 0.539981
vt 0.736820 0.103232
vt 0.877923 0.521159
vt 0.720247 0.110625
vt 0.877923 0.502337
vt 0.707466 0.123504
vt 0.877923 0.483515
vt 0.700200 0.140128
vt 0.877923 0.464693
vt 0.699432 0.158257
vt 0.877923 0.445871
vt 0.705263 0.175437
vt 0.877923 0.427049
vt 0.716906 0.189349
vt 0.877923 0.408227
vt 0.732787 0.198114
vt 0.877923 0.389405
vt 0.888038 0.332939
vt 0.888038 0.351761
vt 0.888038 0.314117
vt 0.888038 0.295295
vt 0.888038 0.276473
vt 0.888038 0.257651
vt 0.888038 0.238829
vt 0.888038 0.539981
vt 0.888038 0.521159
vt 0.888038 0.502337
vt 0.888038 0.483515
vt 0.888038 0.464693
vt 0.888038 0.445871
vt 0.888038 0.427049
vt 0.888038 0.408227
vt 0.888038 0.389405
vt 0.888038 0.370583
vt 0.671316 0.240264
vt 0.765867 0.190722
vt 0.750452 0.194402
vt 0.663956 0.226435
vt 0.680335 0.253073
vt 0.778912 0.181721
vt 0.690872 0.264665
vt 0.787824 0.168614
vt 0.702766 0.274861
vt 0.791400 0.153170
vt 0.715832 0.283503
vt 0.789155 0.137479
vt 0.729869 0.290457
vt 0.781393 0.123655
vt 0.744654 0.295621
vt 0.769161 0.113568
vt 0.759849 0.298980
vt 0.754110 0.108579
vt 0.672414 0.106430
vt 0.738274 0.109373
vt 0.664838 0.120139
vt 0.723793 0.115833
vt 0.659009 0.134680
vt 0.712625 0.127085
vt 0.655027 0.149831
vt 0.706277 0.141610
vt 0.652955 0.165359
vt 0.705606 0.157450
vt 0.652825 0.181024
vt 0.710701 0.172461
vt 0.654639 0.196584
vt 0.720873 0.184617
vt 0.658368 0.211800
vt 0.734749 0.192275
vt 0.672503 0.319768
vt 0.760816 0.294509
vt 0.662470 0.227118
vt 0.656808 0.212293
vt 0.653030 0.196881
vt 0.651191 0.181118
vt 0.651322 0.165250
vt 0.653420 0.149520
vt 0.657453 0.134172
vt 0.663358 0.119443
vt 0.671029 0.105554
vt 0.680272 0.092650
vt 0.744219 0.297198
vt 0.729241 0.291968
vt 0.715022 0.284924
vt 0.701785 0.276171
vt 0.689737 0.265843
vt 0.679062 0.254101
vt 0.669926 0.241126
vt 0.755296 0.099773
vt 0.877923 0.220007
vt 0.888038 0.220007
vt 0.750884 0.203121
vt 0.731975 0.200559
vt 0.715265 0.191335
vt 0.703016 0.176696
vt 0.696881 0.158619
vt 0.697691 0.139545
vt 0.705337 0.122053
vt 0.718786 0.108504
vt 0.736225 0.100725
vt 0.773421 0.105781
vt 0.788151 0.117930
vt 0.797496 0.134577
vt 0.800197 0.153474
vt 0.795889 0.172070
vt 0.785155 0.187854
vt 0.769445 0.198692
vt 0.660156 0.575597
vt 0.706187 0.564869
vt 0.613358 0.568972
vt 0.572113 0.545889
vt 0.541992 0.509466
vt 0.527062 0.464621
vt 0.529341 0.417411
vt 0.548520 0.374212
vt 0.582009 0.340859
vt 0.625285 0.321856
vt 0.717288 0.334879
vt 0.753589 0.365148
vt 0.776504 0.406486
vt 0.782939 0.453311
vt 0.772025 0.499298
vt 0.745235 0.538237
vt 0.681464 0.093785
vt 0.759725 0.300614
vn 1.000000 -0.000000 -0.000001
vn 1.000000 -0.000001 -0.000001
vn 1.000000 0.000000 -0.000000
vn 1.000000 -0.000000 0.000000
vn 1.000000 -0.000001 -0.000000
vn 1.000000 0.000001 -0.000001
vn 1.000000 0.000001 -0.000000
vn 1.000000 0.000000 0.000000
vn 1.000000 0.000001 0.000000
vn 1.000000 0.000001 -0.000000
vn 1.000000 0.000000 -0.000000
vn 1.000000 0.000001 0.000000
vn 1.000000 0.000001 0.000001
vn 1.000000 -0.000001 0.000000
vn 1.000000 -0.000000 0.000000
vn 1.000000 -0.000001 0.000000
vn 1.000000 -0.000001 0.000000
vn 1.000000 -0.000001 -0.000000
vn 0.713151 0.653672 -0.253235
vn 0.713151 0.653672 -0.253235
vn 0.713150 0.518053 -0.472269
vn 0.713150 0.518053 -0.472269
vn 0.713151 0.701011 -0.000000
vn 0.713151 0.701011 -0.000000
vn 0.713150 0.312467 -0.627520
vn 0.713150 0.312467 -0.627520
vn 0.713150 0.064681 -0.698021
vn 0.713150 0.064681 -0.698021
vn 0.713151 -0.191840 -0.674250
vn 0.713151 -0.191840 -0.674250
vn 0.713152 -0.422452 -0.559418
vn 0.713152 -0.422452 -0.559418
vn 0.713153 -0.596010 -0.369033
vn 0.713153 -0.596009 -0.369034
vn 0.713152 -0.689073 -0.128810
vn 0.713152 -0.689073 -0.128810
vn 0.713152 -0.689074 0.128810
vn 0.713152 -0.689074 0.128810
vn 0.713152 -0.596011 0.369034
vn 0.713152 -0.596010 0.369034
vn 0.713152 -0.422452 0.559418
vn 0.713152 -0.422452 0.559418
vn 0.713154 -0.191839 0.674247
vn 0.713154 -0.191839 0.674247
vn 0.713152 0.064681 0.698019
vn 0.713152 0.064681 0.698019
vn 0.713149 0.312467 0.627521
vn 0.713149 0.312467 0.627521
vn 0.713150 0.518053 0.472269
vn 0.713150 0.518053 0.472269
vn 0.713151 0.653672 0.253235
vn 0.713151 0.653672 0.253235
vn -0.000002 0.932472 -0.361242
vn -0.000001 0.739009 -0.673696
vn -0.000001 0.739009 -0.673696
vn -0.000002 0.932472 -0.361242
vn -0.000000 0.445738 -0.895163
vn -0.000000 0.445738 -0.895163
vn 0.000000 0.092268 -0.995734
vn 0.000000 0.092269 -0.995734
vn 0.000000 -0.273663 -0.961826
vn 0.000000 -0.273663 -0.961826
vn 0.000000 -0.602635 -0.798017
vn 0.000000 -0.602635 -0.798017
vn -0.000000 -0.850217 -0.526432
vn -0.000000 -0.850217 -0.526432
vn -0.000000 -0.982973 -0.183749
vn -0.000000 -0.982973 -0.183749
vn -0.000001 -0.982973 0.183749
vn -0.000001 -0.982973 0.183749
vn -0.000001 -0.850217 0.526432
vn -0.000001 -0.850217 0.526432
vn -0.000001 -0.602635 0.798017
vn -0.000001 -0.602635 0.798017
vn -0.000001 -0.273663 0.961826
vn -0.000001 -0.273663 0.961826
vn 0.000000 0.092269 0.995734
vn 0.000000 0.092269 0.995734
vn 0.000001 0.445738 0.895163
vn 0.000001 0.445738 0.895163
vn -0.000001 0.739009 0.673696
vn -0.000001 0.739009 0.673696
vn -0.000002 0.932472 0.361242
vn -0.000002 0.932472 0.361242
vn -0.000003 1.000000 -0.000000
vn -0.000003 1.000000 0.000000
vn 0.713151 -0.653672 0.253234
vn 0.713151 -0.653672 0.253234
vn 0.713152 -0.701009 0.000000
vn 0.713152 -0.701009 0.000000
vn 0.713151 -0.518053 0.472268
vn 0.713151 -0.518053 0.472268
vn 0.713152 -0.312467 0.627518
vn 0.713152 -0.312466 0.627518
vn 0.713153 -0.064681 0.698018
vn 0.713153 -0.064681 0.698018
vn 0.713153 0.191841 0.674248
vn 0.713153 0.191841 0.674248
vn 0.713152 0.422453 0.559417
vn 0.713152 0.422453 0.559417
vn 0.713155 0.596008 0.369033
vn 0.713155 0.596008 0.369033
vn 0.713154 0.689071 0.128809
vn 0.713154 0.689071 0.128810
vn 0.713152 0.689074 -0.128810
vn 0.713151 0.689074 -0.128809
vn 0.713150 0.596012 -0.369035
vn 0.713150 0.596012 -0.369035
vn 0.713151 0.422454 -0.559418
vn 0.713151 0.422454 -0.559418
vn 0.713151 0.191841 -0.674249
vn 0.713151 0.191842 -0.674249
vn 0.713153 -0.064682 -0.698018
vn 0.713153 -0.064682 -0.698018
vn 0.713153 -0.312467 -0.627517
vn 0.713153 -0.312467 -0.627517
vn 0.713151 -0.518053 -0.472268
vn 0.713151 -0.518053 -0.472268
vn 0.713153 -0.653671 -0.253234
vn 0.713153 -0.653671 -0.253234
vn 0.000000 -0.739008 0.673696
vn 0.000000 -0.932472 0.361242
vn 0.000000 -0.932472 0.361242
vn 0.000000 -0.739008 0.673696
vn 0.000000 -0.445738 0.895164
vn 0.000000 -0.445738 0.895164
vn 0.000000 -0.092268 0.995734
vn 0.000000 -0.092268 0.995734
vn 0.000000 0.273663 0.961826
vn 0.000000 0.273663 0.961826
vn 0.000000 0.602635 0.798017
vn 0.000000 0.602634 0.798018
vn 0.000000 0.850217 0.526432
vn 0.000000 0.850217 0.526432
vn 0.000000 0.982973 0.183749
vn 0.000000 0.982973 0.183749
vn 0.000000 0.982973 -0.183749
vn 0.000000 0.982973 -0.183749
vn 0.000000 0.850217 -0.526432
vn 0.000000 0.850217 -0.526432
vn 0.000000 0.602635 -0.798017
vn 0.000000 0.602634 -0.798017
vn 0.000000 0.273663 -0.961826
vn 0.000000 0.273663 -0.961826
vn 0.000000 -0.092269 -0.995734
vn 0.000000 -0.092269 -0.995734
vn 0.000000 -0.445738 -0.895163
vn 0.000000 -0.445738 -0.895164
vn 0.000000 -0.739008 -0.673696
vn 0.000000 -0.739008 -0.673696
vn 0.000000 -0.932472 -0.361242
vn 0.000000 -0.932472 -0.361242
vn 0.000000 -1.000000 0.000000
vn 0.000000 -1.000000 0.000000
vn 1.000000 -0.000000 -0.000001
vn 1.000000 -0.000000 -0.000001
vn 1.000000 -0.000000 -0.000001
vn 1.000000 -0.000000 -0.000001
vn 1.000000 -0.000000 0.000000
vn 1.000000 -0.000000 0.000000
vn 1.000000 -0.000000 -0.000000
vn 1.000000 -0.000000 -0.000000
vn 1.000000 0.000001 -0.000001
vn 1.000000 0.000001 -0.000001
vn 1.000000 0.000001 -0.000000
vn 1.000000 0.000001 -0.000000
vn 1.000000 -0.000000 0.000000
vn 1.000000 -0.000000 0.000000
vn 1.000000 0.000000 0.000000
vn 1.000000 0.000000 0.000000
vn 1.000000 -0.000000 0.000000
vn 1.000000 -0.000000 0.000000
vn 1.000000 -0.000000 -0.000000
vn 1.000000 -0.000000 -0.000000
vn 1.000000 0.000001 0.000000
vn 1.000000 0.000001 0.000000
vn 1.000000 0.000001 0.000001
vn 1.000000 0.000001 0.000001
vn 1.000000 -0.000001 0.000000
vn 1.000000 -0.000001 0.000000
vn 1.000000 -0.000000 0.000000
vn 1.000000 -0.000000 0.000000
vn 1.000000 -0.000000 0.000000
vn 1.000000 -0.000000 0.000000
vn 1.000000 -0.000000 0.000000
vn 1.000000 -0.000000 0.000000
vn 1.000000 0.000000 0.000000
vn 1.000000 0.000000 0.000000
s 1
g clock group1
f 19/157/1 18/143/2 20/3/3
f 21/156/4 19/157/1 20/3/3
f 22/155/5 21/156/4 20/3/3
f 23/154/6 22/155/5 20/3/3
f 24/153/7 23/154/6 20/3/3
f 25/152/8 24/153/7 20/3/3
f 26/104/9 25/152/8 20/3/3
f 27/151/10 26/104/9 20/3/3
f 28/150/11 27/151/10 20/3/3
f 29/149/12 28/150/11 20/3/3
f 30/148/13 29/149/12 20/3/3
f 31/147/14 30/148/13 20/3/3
f 32/146/15 31/147/14 20/3/3
f 33/145/16 32/146/15 20/3/3
f 34/144/17 33/145/16 20/3/3
f 35/142/18 34/144/17 20/3/3
f 18/143/2 35/142/18 20/3/3
s 2
f 36/141/19 37/20/20 39/21/21 38/140/22
f 37/20/20 36/141/19 68/126/23 69/24/24
f 38/140/22 39/21/21 41/25/25 40/139/26
f 40/139/26 41/25/25 43/27/27 42/138/28
f 42/138/28 43/27/27 45/29/29 44/137/30
f 44/137/30 45/29/29 47/31/31 46/136/32
f 46/136/32 47/31/31 49/33/33 48/135/34
f 48/135/34 49/33/33 51/35/35 50/123/36
f 50/123/36 51/35/35 53/37/37 52/134/38
f 52/134/38 53/37/37 55/39/39 54/133/40
f 54/133/40 55/39/39 57/41/41 56/132/42
f 56/132/42 57/41/41 59/43/43 58/131/44
f 58/131/44 59/43/43 61/45/45 60/130/46
f 60/130/46 61/45/45 63/47/47 62/129/48
f 62/129/48 63/47/47 65/49/49 64/128/50
f 64/128/50 65/49/49 67/51/51 66/127/52
f 66/127/52 67/51/51 69/24/24 68/126/23
s 3
f 36/19/53 38/22/54 2/53/55 1/54/56
f 38/22/54 40/26/57 3/55/58 2/53/55
f 40/26/57 42/28/59 4/56/60 3/55/58
f 42/28/59 44/30/61 5/57/62 4/56/60
f 44/30/61 46/32/63 6/58/64 5/57/62
f 46/32/63 48/34/65 7/59/66 6/58/64
f 48/34/65 50/124/67 8/125/68 7/59/66
f 50/36/67 52/38/69 9/61/70 8/60/68
f 52/38/69 54/40/71 10/62/72 9/61/70
f 54/40/71 56/42/73 11/63/74 10/62/72
f 56/42/73 58/44/75 12/64/76 11/63/74
f 58/44/75 60/46/77 13/65/78 12/64/76
f 60/46/77 62/48/79 14/66/80 13/65/78
f 62/48/79 64/50/81 15/67/82 14/66/80
f 64/50/81 66/52/83 16/68/84 15/67/82
f 66/52/83 68/23/85 17/69/86 16/68/84
f 68/23/85 36/19/53 1/54/56 17/69/86
s 4
f 70/70/87 71/122/88 103/106/89 102/73/90
f 71/122/88 70/70/87 72/74/91 73/121/92
f 73/121/92 72/74/91 74/76/93 75/120/94
f 75/120/94 74/76/93 76/78/95 77/119/96
f 77/119/96 76/78/95 78/80/97 79/118/98
f 79/118/98 78/80/97 80/82/99 81/117/100
f 81/117/100 80/82/99 82/84/101 83/116/102
f 83/116/102 82/84/101 84/86/103 85/159/104
f 85/115/104 84/158/103 86/88/105 87/114/106
f 87/114/106 86/88/105 88/90/107 89/113/108
f 89/113/108 88/90/107 90/92/109 91/112/110
f 91/112/110 90/92/109 92/94/111 93/111/112
f 93/111/112 92/94/111 94/96/113 95/110/114
f 95/110/114 94/96/113 96/98/115 97/109/116
f 97/109/116 96/98/115 98/100/117 99/108/118
f 99/108/118 98/100/117 100/102/119 101/107/120
f 101/107/120 100/102/119 102/73/90 103/106/89
s 5
f 72/74/121 70/70/122 18/2/123 19/1/124
f 74/76/125 72/74/121 19/1/124 21/4/126
f 76/78/127 74/76/125 21/4/126 22/5/128
f 78/80/129 76/78/127 22/5/128 23/6/130
f 80/82/131 78/80/129 23/6/130 24/7/132
f 82/84/133 80/82/131 24/7/132 25/8/134
f 84/86/135 82/84/133 25/8/134 26/105/136
f 86/88/137 84/158/135 26/9/136 27/10/138
f 88/90/139 86/88/137 27/10/138 28/11/140
f 90/92/141 88/90/139 28/11/140 29/12/142
f 92/94/143 90/92/141 29/12/142 30/13/144
f 94/96/145 92/94/143 30/13/144 31/14/146
f 96/98/147 94/96/145 31/14/146 32/15/148
f 98/100/149 96/98/147 32/15/148 33/16/150
f 100/102/151 98/100/149 33/16/150 34/17/152
f 102/73/153 100/102/151 34/17/152 35/18/154
f 70/70/122 102/73/153 35/18/154 18/2/123
s 6
f 39/21/155 37/20/156 71/71/157 73/75/158
f 41/25/159 39/21/155 73/75/158 75/77/160
f 43/27/161 41/25/159 75/77/160 77/79/162
f 45/29/163 43/27/161 77/79/162 79/81/164
f 47/31/165 45/29/163 79/81/164 81/83/166
f 49/33/167 47/31/165 81/83/166 83/85/168
f 51/35/169 49/33/167 83/85/168 85/87/170
f 53/37/171 51/35/169 85/87/170 87/89/172
f 55/39/173 53/37/171 87/89/172 89/91/174
f 57/41/175 55/39/173 89/91/174 91/93/176
f 59/43/177 57/41/175 91/93/176 93/95/178
f 61/45/179 59/43/177 93/95/178 95/97/180
f 63/47/181 61/45/179 95/97/180 97/99/182
f 65/49/183 63/47/181 97/99/182 99/101/184
f 67/51/185 65/49/183 99/101/184 101/103/186
f 69/24/187 67/51/185 101/103/186 103/72/188
f 37/20/156 69/24/187 103/72/188 71/71/157
