# This file uses meters as units for non-parametric coordinates.

mtllib paper_crane.mtl
g default
v -4.164030 0.000000 0.367378
v 5.347864 0.000000 0.367378
v -4.164030 3.722892 0.612343
v 5.347864 3.722892 0.612343
v -4.164030 3.722892 -0.612343
v 5.347864 3.722892 -0.612343
v -4.164030 0.000000 -0.367378
v 5.347864 0.000000 -0.367378
v 0.591917 8.292011 0.000000
v 0.591917 1.514996 0.367378
v 0.591917 3.722892 0.612343
v 0.591917 3.722892 -0.612343
v 0.591917 1.514996 -0.367378
v -10.992613 9.358896 0.212616
v -3.904467 0.169235 0.485596
v -10.983355 10.763628 0.212616
v -2.362795 1.529339 0.485596
v -10.983355 10.763628 -0.212616
v -2.362795 1.529339 -0.485596
v -10.992613 9.358896 -0.212616
v -3.904467 0.169235 -0.485596
v -13.018400 8.962273 0.000000
v 13.018400 10.454542 0.000000
v 5.214228 0.412003 -0.485596
v 3.672556 1.772102 -0.485596
v 3.672556 1.772102 0.485596
v 5.214228 0.412003 0.485596
v -4.164030 0.000000 0.462259
v 5.347864 0.000000 0.462259
v -4.164030 3.688799 1.095535
v 5.347864 3.688799 1.095535
v -4.164030 3.736857 0.368055
v 5.347864 3.736857 0.368055
v -4.164030 0.000000 0.227654
v 5.347864 0.000000 0.227654
v 0.591917 1.527361 0.663944
v 0.591917 3.714650 0.992241
v 0.591917 3.736857 0.368055
v 0.591917 1.514996 0.227654
v 0.591917 7.157245 7.883667
v -4.164030 4.740562 2.178253
v 0.591917 4.740562 2.178253
v 5.347864 4.740562 2.178253
v 5.347864 5.327229 1.963943
v 0.591917 5.327229 1.963943
v -4.164030 5.327229 1.963943
v -4.164030 0.000000 -0.462265
v 5.347864 0.000000 -0.462265
v -4.164030 3.688799 -1.095551
v 5.347864 3.688799 -1.095551
v -4.164030 3.736857 -0.368057
v 5.347864 3.736857 -0.368057
v -4.164030 0.000000 -0.227654
v 5.347864 0.000000 -0.227654
v 0.591917 1.527361 -0.663940
v 0.591917 3.714650 -0.992249
v 0.591917 3.736857 -0.368057
v 0.591917 1.514996 -0.227654
v 0.591917 7.157245 -7.883606
v -4.164030 4.740562 -2.178253
v 0.591917 4.740562 -2.178253
v 5.347864 4.740562 -2.178253
v 5.347864 5.327229 -1.963928
v 0.591917 5.327229 -1.963928
v -4.164030 5.327229 -1.963928
vt 0.879708 0.032736
vt 0.880157 0.000489
vt 0.880245 0.000488
vt 0.884455 0.032802
vt 0.879746 0.032734
vt 0.884493 0.032808
vt 0.885703 0.056884
vt 0.832573 0.000489
vt 0.885703 0.056876
vt 0.832573 0.000491
vt 0.801845 0.000494
vt 0.801845 0.030277
vt 0.801845 0.000491
vt 0.884992 0.000561
vt 0.884903 0.000555
vt 0.877791 0.056766
vt 0.881088 0.099429
vt 0.801849 0.030279
vt 0.881155 0.099429
vt 0.771116 0.000492
vt 0.877791 0.056761
vt 0.771116 0.000499
vt 0.778670 0.576714
vt 0.774540 0.501824
vt 0.787822 0.501967
vt 0.784648 0.583544
vt 0.879542 0.181616
vt 0.877791 0.099994
vt 0.884066 0.099995
vt 0.882290 0.181616
vt 0.755960 0.782116
vt 0.756112 0.700477
vt 0.769389 0.700875
vt 0.762211 0.775535
vt 0.681935 0.198914
vt 0.680179 0.123928
vt 0.686454 0.123929
vt 0.684682 0.198915
vt 0.683307 0.212252
vt 0.767035 0.583378
vt 0.880913 0.199176
vt 0.773564 0.782667
vt 0.823089 0.265750
vt 0.820664 0.183551
vt 0.833941 0.183985
vt 0.840125 0.185047
vt 0.852786 0.189064
vt 0.858547 0.191552
vt 0.346090 0.631302
vt 0.377984 0.639250
vt 0.378154 0.653762
vt 0.347386 0.655235
vt 0.346396 0.629813
vt 0.377928 0.637048
vt 0.409475 0.630495
vt 0.410999 0.630435
vt 0.413645 0.653692
vt 0.408988 0.654641
vt 0.344574 0.631167
vt 0.342666 0.654706
vt 0.347626 0.664924
vt 0.378228 0.663979
vt 0.378415 0.704156
vt 0.009786 0.637460
vt 0.012891 0.634882
vt 0.043543 0.674976
vt 0.043620 0.634942
vt 0.074349 0.635001
vt 0.077444 0.637590
vt 0.408870 0.664427
vt 0.377941 0.636957
vt 0.408996 0.629045
vt 0.009375 0.623429
vt 0.012919 0.620325
vt 0.009232 0.633181
vt 0.043648 0.620384
vt 0.074377 0.620443
vt 0.077909 0.623560
vt 0.078014 0.633313
vt 0.409475 0.630495
vt 0.408988 0.654641
vt 0.378154 0.653762
vt 0.377984 0.639250
vt 0.408996 0.629045
vt 0.377940 0.636957
vt 0.346090 0.631302
vt 0.347386 0.655235
vt 0.342666 0.654706
vt 0.344574 0.631167
vt 0.410999 0.630435
vt 0.413645 0.653692
vt 0.408870 0.664427
vt 0.378415 0.704156
vt 0.378228 0.663979
vt 0.077444 0.637590
vt 0.043543 0.674976
vt 0.074349 0.635001
vt 0.012891 0.634882
vt 0.043620 0.634942
vt 0.009786 0.637460
vt 0.347626 0.664924
vt 0.346396 0.629813
vt 0.377928 0.637048
vt 0.077909 0.623560
vt 0.078014 0.633313
vt 0.074377 0.620443
vt 0.043648 0.620384
vt 0.012919 0.620325
vt 0.009232 0.633181
vt 0.009375 0.623429
vn 0.303520 -0.952825 0.000000
vn 0.303520 -0.952825 0.000000
vn 0.303520 -0.952825 0.000000
vn 0.303520 -0.952825 0.000000
vn 1.000000 -0.000000 0.000000
vn 1.000000 -0.000000 0.000000
vn 1.000000 -0.000000 0.000000
vn 1.000000 -0.000000 0.000000
vn -1.000000 -0.000000 0.000000
vn -1.000000 -0.000000 0.000000
vn -1.000000 -0.000000 0.000000
vn -1.000000 -0.000000 0.000000
vn 0.000000 0.132830 0.991139
vn 0.000000 0.132830 0.991139
vn 0.000000 0.132830 0.991139
vn 0.692801 0.721129 0.000000
vn 0.692801 0.721129 0.000000
vn 0.692801 0.721129 0.000000
vn 0.000000 0.132830 -0.991139
vn 0.000000 0.132830 -0.991139
vn 0.000000 0.132830 -0.991139
vn -0.692801 0.721129 0.000000
vn -0.692801 0.721129 0.000000
vn -0.692801 0.721129 0.000000
vn 0.000000 0.132830 0.991139
vn 0.000000 0.132830 -0.991139
vn -0.303520 -0.952825 0.000000
vn -0.303520 -0.952825 0.000000
vn -0.303520 -0.952825 0.000000
vn -0.303520 -0.952825 0.000000
vn -0.020957 0.011756 0.999711
vn -0.020957 0.011756 0.999711
vn -0.020957 0.011756 0.999711
vn -0.020957 0.011756 0.999711
vn 0.730981 0.682398 0.000000
vn 0.730981 0.682398 0.000000
vn 0.730981 0.682398 0.000000
vn 0.730981 0.682398 0.000000
vn -0.020957 0.011756 -0.999711
vn -0.020957 0.011756 -0.999711
vn -0.020957 0.011756 -0.999711
vn -0.020957 0.011756 -0.999711
vn -0.791825 -0.610748 0.000000
vn -0.791825 -0.610748 0.000000
vn -0.791825 -0.610748 0.000000
vn -0.791825 -0.610748 0.000000
vn 0.192139 -0.981368 0.000000
vn 0.192139 -0.981368 0.000000
vn 0.192139 -0.981368 0.000000
vn -0.104515 0.000689 0.994523
vn -0.104515 0.000689 0.994523
vn -0.104515 0.000689 0.994523
vn -0.662806 0.748791 0.000000
vn -0.662806 0.748791 0.000000
vn -0.662806 0.748791 0.000000
vn -0.104515 0.000689 -0.994523
vn -0.104515 0.000689 -0.994523
vn -0.104515 0.000689 -0.994523
vn 0.025290 0.028666 -0.999269
vn 0.025290 0.028666 -0.999269
vn 0.025290 0.028666 -0.999269
vn -0.680626 0.732631 0.000000
vn -0.680626 0.732631 0.000000
vn -0.680626 0.732631 0.000000
vn 0.025290 0.028666 0.999269
vn 0.025290 0.028666 0.999269
vn 0.025290 0.028666 0.999269
vn 0.789607 -0.613613 0.000000
vn 0.789607 -0.613613 0.000000
vn 0.789607 -0.613613 0.000000
vn 0.016160 -0.161473 0.986745
vn 0.016160 -0.161473 0.986745
vn 0.016160 -0.161473 0.986745
vn 0.016160 -0.161473 0.986745
vn 0.304259 -0.952428 0.017554
vn 0.304259 -0.952428 0.017554
vn 0.304259 -0.952428 0.017554
vn 0.304259 -0.952428 0.017554
vn 1.000000 0.000000 0.000000
vn 1.000000 0.000000 0.000000
vn 1.000000 0.000000 0.000000
vn 1.000000 0.000000 0.000000
vn -1.000000 0.000000 0.000000
vn -1.000000 0.000000 0.000000
vn -1.000000 0.000000 0.000000
vn -1.000000 0.000000 0.000000
vn 0.000000 -0.920802 0.390031
vn 0.000000 -0.920802 0.390031
vn 0.000000 -0.920802 0.390031
vn 0.792887 0.209089 0.572374
vn 0.792888 0.209089 0.572374
vn 0.792887 0.209089 0.572374
vn 0.000000 0.955390 -0.295348
vn 0.000000 0.955390 -0.295348
vn 0.000000 0.955390 -0.295348
vn -0.792888 0.209089 0.572374
vn -0.792887 0.209089 0.572374
vn -0.792887 0.209089 0.572374
vn -0.016160 -0.161473 0.986745
vn -0.016160 -0.161473 0.986745
vn -0.016160 -0.161473 0.986745
vn -0.016160 -0.161473 0.986745
vn 0.000000 -0.920802 0.390031
vn 0.000000 -0.920802 0.390031
vn 0.000000 -0.920802 0.390031
vn 0.000000 0.955390 -0.295348
vn 0.000000 0.955390 -0.295348
vn 0.000000 0.955390 -0.295348
vn -0.304259 -0.952428 0.017554
vn -0.304259 -0.952428 0.017554
vn -0.304259 -0.952428 0.017554
vn -0.304259 -0.952428 0.017554
vn 0.009338 -0.737445 0.675343
vn 0.009338 -0.737445 0.675343
vn 0.009338 -0.737445 0.675343
vn 0.009338 -0.737445 0.675343
vn 1.000000 -0.000001 0.000000
vn 1.000000 -0.000001 0.000000
vn 1.000000 -0.000001 0.000000
vn 1.000000 -0.000001 0.000000
vn 0.000000 0.708330 -0.705882
vn 0.000000 0.708330 -0.705882
vn 0.000000 0.708330 -0.705882
vn 0.000000 0.708330 -0.705882
vn -1.000000 0.000000 0.000000
vn -1.000000 0.000000 0.000000
vn -1.000000 0.000000 0.000000
vn -1.000000 0.000000 0.000000
vn -0.009338 -0.737445 0.675343
vn -0.009338 -0.737445 0.675343
vn -0.009338 -0.737445 0.675343
vn -0.009338 -0.737445 0.675343
vn 0.000000 0.708330 -0.705882
vn 0.000000 0.708330 -0.705882
vn 0.000000 0.708330 -0.705882
vn 0.000000 0.708330 -0.705882
vn 0.016163 -0.161476 -0.986744
vn 0.016163 -0.161476 -0.986744
vn 0.016163 -0.161476 -0.986744
vn 0.016163 -0.161476 -0.986744
vn 0.304259 -0.952428 -0.017555
vn 0.304259 -0.952428 -0.017555
vn 0.304259 -0.952428 -0.017555
vn 0.304259 -0.952428 -0.017555
vn 1.000000 0.000000 0.000000
vn 1.000000 0.000000 0.000000
vn 1.000000 0.000000 0.000000
vn 1.000000 0.000000 0.000000
vn -1.000000 -0.000000 0.000000
vn -1.000000 -0.000000 0.000000
vn -1.000000 -0.000000 0.000000
vn -1.000000 -0.000000 0.000000
vn 0.000000 -0.920800 -0.390034
vn 0.000000 -0.920800 -0.390034
vn 0.000000 -0.920800 -0.390034
vn 0.792885 0.209103 -0.572372
vn 0.792885 0.209103 -0.572372
vn 0.792885 0.209103 -0.572372
vn 0.000000 0.955389 0.295350
vn 0.000000 0.955389 0.295350
vn 0.000000 0.955389 0.295350
vn -0.792885 0.209103 -0.572372
vn -0.792885 0.209103 -0.572372
vn -0.792885 0.209103 -0.572372
vn -0.016163 -0.161476 -0.986744
vn -0.016163 -0.161476 -0.986744
vn -0.016163 -0.161476 -0.986744
vn -0.016163 -0.161476 -0.986744
vn 0.000000 -0.920800 -0.390034
vn 0.000000 -0.920800 -0.390034
vn 0.000000 -0.920800 -0.390034
vn 0.000000 0.955389 0.295350
vn 0.000000 0.955389 0.295350
vn 0.000000 0.955389 0.295350
vn -0.304259 -0.952428 -0.017555
vn -0.304259 -0.952428 -0.017555
vn -0.304259 -0.952428 -0.017555
vn -0.304259 -0.952428 -0.017555
vn 0.009339 -0.737441 -0.675347
vn 0.009339 -0.737441 -0.675347
vn 0.009339 -0.737441 -0.675347
vn 0.009339 -0.737441 -0.675347
vn 1.000000 0.000000 0.000000
vn 1.000000 0.000000 0.000000
vn 1.000000 0.000000 0.000000
vn 1.000000 0.000000 0.000000
vn 0.000000 0.708326 0.705885
vn 0.000000 0.708326 0.705885
vn 0.000000 0.708326 0.705885
vn 0.000000 0.708326 0.705885
vn -1.000000 0.000000 0.000000
vn -1.000000 0.000000 0.000000
vn -1.000000 0.000000 0.000000
vn -1.000000 0.000000 0.000000
vn -0.009339 -0.737441 -0.675347
vn -0.009339 -0.737441 -0.675347
vn -0.009339 -0.737441 -0.675347
vn -0.009339 -0.737441 -0.675347
vn 0.000000 0.708326 0.705885
vn 0.000000 0.708326 0.705885
vn 0.000000 0.708326 0.705885
vn 0.000000 0.708326 0.705885
s off
g paper_crane
usemtl initialShadingGroup
f 7/1/1 13/2/2 10/15/3 1/4/4
f 2/5/5 8/6/6 6/7/7 4/21/8
f 7/1/9 1/4/10 3/9/11 5/16/12
s 1
f 3/22/13 11/11/14 9/18/15
s off
f 4/21/16 6/7/17 9/17/18
s 2
f 9/12/19 12/13/20 5/10/21
s off
f 5/16/22 3/9/23 9/19/24
s 1
f 9/18/15 11/11/14 4/8/25
s 2
f 6/20/26 12/13/20 9/12/19
s off
f 10/3/27 13/14/28 8/6/29 2/5/30
f 14/23/31 15/24/32 17/25/33 16/26/34
f 16/27/35 17/28/36 19/29/37 18/30/38
f 18/31/39 19/32/40 21/33/41 20/34/42
f 20/35/43 21/36/44 15/37/45 14/38/46
f 20/35/47 14/38/48 22/39/49
f 14/23/50 16/26/51 22/40/52
f 16/27/53 18/30/54 22/41/55
f 18/31/56 20/34/57 22/42/58
f 23/43/59 24/44/60 25/45/61
f 23/43/62 25/45/63 26/46/64
f 23/43/65 26/46/66 27/47/67
f 23/43/68 27/47/69 24/48/70
f 28/49/71 36/50/72 37/51/73 30/52/74
f 34/53/75 39/54/76 36/50/77 28/49/78
f 29/55/79 35/56/80 33/57/81 31/58/82
f 34/59/83 28/49/84 30/52/85 32/60/86
f 41/61/87 42/62/88 40/63/89
f 43/64/90 44/65/91 40/66/92
f 40/66/93 45/67/94 46/68/95
f 46/68/96 41/69/97 40/66/98
f 37/51/99 36/50/100 29/55/101 31/58/102
f 40/63/103 42/62/104 43/70/105
f 44/65/106 45/67/107 40/66/108
f 36/50/109 39/71/110 35/72/111 29/55/112
f 30/52/113 37/51/114 42/62/115 41/61/116
f 31/73/117 33/74/118 44/65/119 43/75/120
f 38/76/121 32/77/122 46/68/123 45/67/124
f 32/77/125 30/78/126 41/79/127 46/68/128
f 37/51/129 31/58/130 43/70/131 42/62/132
f 33/74/133 38/76/134 45/67/135 44/65/136
f 47/80/137 49/81/138 56/82/139 55/83/140
f 53/84/141 47/80/142 55/83/143 58/85/144
f 48/86/145 50/87/146 52/88/147 54/89/148
f 53/90/149 51/91/150 49/81/151 47/80/152
f 60/92/153 59/93/154 61/94/155
f 62/95/156 59/96/157 63/97/158
f 59/96/159 65/98/160 64/99/161
f 65/98/162 59/96/163 60/100/164
f 56/82/165 50/87/166 48/86/167 55/83/168
f 59/93/169 62/101/170 61/94/171
f 63/97/172 59/96/173 64/99/174
f 55/83/175 48/86/176 54/102/177 58/103/178
f 49/81/179 60/92/180 61/94/181 56/82/182
f 50/104/183 62/105/184 63/97/185 52/106/186
f 57/107/187 64/99/188 65/98/189 51/108/190
f 51/108/191 65/98/192 60/109/193 49/110/194
f 56/82/195 61/94/196 62/101/197 50/87/198
f 52/106/199 63/97/200 64/99/201 57/107/202
