# This file uses meters as units for non-parametric coordinates.

g default
v 32.389114 49.035049 14.598709
v 33.592545 49.274433 14.100235
v 34.091003 49.373581 12.896820
v 34.091003 49.373581 -12.896820
v 33.592545 49.274433 -14.100235
v 32.389114 49.035049 -14.598709
v 30.682251 52.782333 12.896820
v 30.583099 52.283859 14.100235
v 30.343719 51.080448 14.598709
v -30.343719 51.080444 14.598709
v -30.583099 52.283859 14.100235
v -30.682251 52.782333 12.896820
v 30.343719 51.080448 -14.598709
v 30.583099 52.283859 -14.100235
v 30.682251 52.782333 -12.896820
v -30.682251 52.782333 -12.896820
v -30.583099 52.283859 -14.100235
v -30.343719 51.080444 -14.598709
v -34.091003 49.373581 12.896820
v -33.592529 49.274429 14.100235
v -32.389114 49.035049 14.598709
v -32.389114 49.035049 -14.598709
v -33.592529 49.274429 -14.100235
v -34.091003 49.373581 -12.896820
v 33.092606 51.783939 12.896820
v 32.711090 51.402424 14.100235
v 31.790039 50.481369 14.598709
v 31.790039 50.481369 -14.598709
v 32.711090 51.402424 -14.100235
v 33.092606 51.783939 -12.896820
v -33.092606 51.783936 12.896820
v -32.711090 51.402420 14.100235
v -31.790039 50.481369 14.598709
v -31.790039 50.481369 -14.598709
v -32.711090 51.402420 -14.100235
v -33.092606 51.783936 -12.896820
v -30.353958 1.078218 14.100235
v -32.643982 2.026781 14.100235
v -33.592529 4.316805 14.100235
v -29.150528 2.281633 14.598709
v -32.389114 5.520212 14.598709
v -31.440567 3.230188 14.598709
v 32.389114 5.520210 14.598709
v 29.150528 2.281631 14.598709
v 31.440567 3.230186 14.598709
v 30.353958 1.078217 14.100235
v 32.643982 2.026779 14.100235
v 33.592545 4.316803 14.100235
v -30.852417 0.579744 12.896820
v -33.142441 1.528307 12.896820
v -34.091003 3.818331 12.896820
v 34.091003 3.818329 12.896820
v 33.142456 1.528305 12.896820
v 30.852417 0.579742 12.896820
v -30.353958 1.078218 -14.100235
v -32.643982 2.026781 -14.100235
v -33.592529 4.316805 -14.100235
v -34.091003 3.818331 -12.896820
v -33.142441 1.528307 -12.896820
v -30.852417 0.579744 -12.896820
v 30.852417 0.579742 -12.896820
v 33.142456 1.528305 -12.896820
v 34.091003 3.818329 -12.896820
v 30.353958 1.078217 -14.100235
v 32.643982 2.026779 -14.100235
v 33.592545 4.316803 -14.100235
v -29.150528 2.281633 -14.598709
v -31.440567 3.230188 -14.598709
v -32.389114 5.520212 -14.598709
v 32.389114 5.520210 -14.598709
v 31.440567 3.230186 -14.598709
v 29.150528 2.281631 -14.598709
vt 0.589903 0.732705
vt 0.590355 0.734869
vt 0.488475 0.735640
vt 0.488916 0.733472
vt 0.455639 0.825112
vt 0.455639 0.722986
vt 0.412712 0.825112
vt 0.286722 0.729687
vt 0.388503 0.728512
vt 0.412712 0.722986
vt 0.287138 0.727516
vt 0.388021 0.726351
vt 0.455639 0.829454
vt 0.412712 0.829454
vt 0.597601 0.730176
vt 0.412712 0.833796
vt 0.455639 0.714302
vt 0.455639 0.718644
vt 0.412712 0.718644
vt 0.395708 0.723778
vt 0.593831 0.733256
vt 0.592258 0.731695
vt 0.283242 0.728095
vt 0.284792 0.726513
vt 0.483343 0.730576
vt 0.484989 0.734041
vt 0.485504 0.730093
vt 0.486540 0.732468
vt 0.391379 0.722925
vt 0.393547 0.723374
vt 0.391958 0.726861
vt 0.390381 0.725311
vt 0.593269 0.729353
vt 0.595438 0.729784
vt 0.281609 0.724628
vt 0.283770 0.724158
vt 0.482707 0.655631
vt 0.484395 0.651840
vt 0.486441 0.653858
vt 0.484883 0.657643
vt 0.488167 0.650105
vt 0.490207 0.652252
vt 0.594873 0.654776
vt 0.593142 0.651011
vt 0.455639 0.913737
vt 0.455639 0.909612
vt 0.589361 0.649320
vt 0.590407 0.647169
vt 0.392961 0.648555
vt 0.391224 0.644783
vt 0.412712 0.634361
vt 0.412712 0.638486
vt 0.387436 0.643093
vt 0.388467 0.640938
vt 0.280649 0.649585
vt 0.282324 0.645777
vt 0.284375 0.647784
vt 0.282833 0.651601
vt 0.286089 0.644020
vt 0.288155 0.646163
vt 0.587330 0.651496
vt 0.455639 0.630236
vt 0.412712 0.917862
vt 0.385421 0.645272
vt 0.480557 0.654598
vt 0.278496 0.648550
vt 0.592730 0.656841
vt 0.390817 0.650596
vt 0.591127 0.653053
vt 0.389208 0.646829
vt 0.455639 0.634361
vt 0.280727 0.644211
vt 0.455639 0.833796
vt 0.597005 0.653698
vt 0.412712 0.909612
vt 0.279454 0.725060
vt 0.455639 0.638486
vt 0.481188 0.731013
vt 0.412712 0.714302
vt 0.395094 0.647491
vt 0.412712 0.913737
vt 0.285009 0.641878
vt 0.412712 0.630236
vt 0.392793 0.643190
vt 0.455639 0.917862
vt 0.594716 0.649420
vt 0.482802 0.650271
vt 0.487106 0.647959
vt 0.393445 0.728327
vt 0.483525 0.735529
vt 0.388936 0.730666
vt 0.286350 0.731842
vt 0.281784 0.729588
vt 0.488082 0.737793
vt 0.590766 0.737027
vt 0.595312 0.734727
vn 0.000074 0.006227 0.999981
vn 0.010274 0.732434 0.680761
vn -0.010274 0.732434 0.680761
vn -0.000073 0.006227 0.999981
vn 0.015614 0.999723 0.017592
vn -0.015614 0.999723 0.017592
vn 0.015614 0.999723 -0.017592
vn 0.010274 0.732434 -0.680761
vn -0.010274 0.732434 -0.680761
vn -0.015614 0.999723 -0.017592
vn 0.000074 0.006227 -0.999981
vn -0.000073 0.006227 -0.999981
vn 0.707004 0.707004 0.017045
vn 0.707004 0.707004 -0.017045
vn 0.999631 0.020763 0.017516
vn 0.999631 0.020763 -0.017516
vn -0.999631 0.020763 0.017516
vn -0.707004 0.707004 0.017045
vn -0.707004 0.707004 -0.017045
vn -0.999631 0.020763 -0.017516
vn 0.538872 0.538874 0.647481
vn 0.000328 0.000328 1.000000
vn 0.538871 0.538873 -0.647482
vn 0.000328 0.000328 -1.000000
vn -0.734761 0.013846 0.678185
vn -0.538872 0.538872 0.647483
vn -0.004588 0.000074 0.999990
vn -0.000328 0.000328 1.000000
vn -0.004588 0.000074 -0.999990
vn -0.734761 0.013845 -0.678185
vn -0.538873 0.538873 -0.647482
vn -0.000328 0.000328 -1.000000
vn 0.004588 0.000074 0.999990
vn 0.734761 0.013846 0.678184
vn 0.734761 0.013846 -0.678184
vn 0.004588 0.000074 -0.999990
vn -0.799429 -0.015361 0.600564
vn -0.451560 -0.451557 0.769539
vn -0.000422 -0.000422 1.000000
vn -0.005964 -0.000064 0.999982
vn -0.011573 -0.804097 0.594385
vn -0.000064 -0.007930 0.999969
vn 0.799431 -0.015361 0.600561
vn 0.451558 -0.451558 0.769539
vn 0.706920 -0.706920 0.022997
vn 0.999686 -0.020126 0.014948
vn 0.011573 -0.804097 0.594385
vn 0.207597 -0.956841 0.203368
vn -0.799429 -0.015361 -0.600564
vn -0.451560 -0.451557 -0.769539
vn -0.706920 -0.706920 -0.022997
vn -0.999686 -0.020127 -0.014948
vn -0.011573 -0.804097 -0.594385
vn -0.207597 -0.956841 -0.203369
vn 0.799431 -0.015361 -0.600561
vn 0.451558 -0.451558 -0.769540
vn 0.000422 -0.000422 -1.000000
vn 0.005964 -0.000064 -0.999982
vn 0.011573 -0.804097 -0.594385
vn 0.000064 -0.007930 -0.999969
vn 0.000064 -0.007930 0.999969
vn -0.207597 -0.956841 0.203369
vn 0.207597 -0.956841 -0.203368
vn -0.000064 -0.007930 -0.999969
vn -0.999686 -0.020127 0.014948
vn 0.999686 -0.020126 -0.014948
vn 0.005964 -0.000064 0.999982
vn -0.005964 -0.000064 -0.999982
vn 0.000422 -0.000422 1.000000
vn -0.000422 -0.000422 -1.000000
vn -0.706920 -0.706920 0.022997
vn 0.706920 -0.706920 -0.022997
s 1
g pc group1
f 9/1/1 8/2/2 11/3/3 10/4/4
f 8/2/2 7/95/5 12/94/6 11/3/3
f 15/92/7 14/8/8 17/9/9 16/91/10
f 14/8/8 13/11/11 18/12/12 17/9/9
f 7/5/5 15/7/7 16/10/10 12/6/6
f 7/5/5 25/13/13 30/14/14 15/7/7
f 25/13/13 3/73/15 4/16/16 30/14/14
f 19/17/17 31/18/18 36/19/19 24/79/20
f 31/18/18 12/6/6 16/10/10 36/19/19
f 7/95/5 8/2/2 26/21/21 25/96/13
f 8/2/2 9/1/1 27/22/22 26/21/21
f 13/11/11 14/8/8 29/23/23 28/24/24
f 14/8/8 15/92/7 30/93/14 29/23/23
f 19/78/17 20/25/25 32/26/26 31/90/18
f 20/25/25 21/27/27 33/28/28 32/26/26
f 22/29/29 23/30/30 35/31/31 34/32/32
f 23/30/30 24/20/20 36/89/19 35/31/31
f 1/33/33 2/34/34 26/21/21 27/22/22
f 2/34/34 3/15/15 25/96/13 26/21/21
f 4/76/16 5/35/35 29/23/23 30/93/14
f 5/35/35 6/36/36 28/24/24 29/23/23
f 10/4/4 11/3/3 32/26/26 33/28/28
f 11/3/3 12/94/6 31/90/18 32/26/26
f 16/91/10 17/9/9 35/31/31 36/89/19
f 17/9/9 18/12/12 34/32/32 35/31/31
f 39/37/37 38/38/38 42/39/39 41/40/40
f 38/38/38 37/41/41 40/42/42 42/39/39
f 48/43/43 47/44/44 53/86/45 52/74/46
f 47/44/44 46/47/47 54/48/48 53/86/45
f 57/49/49 56/50/50 59/84/51 58/80/52
f 56/50/50 55/53/53 60/54/54 59/84/51
f 66/55/55 65/56/56 71/57/57 70/58/58
f 65/56/56 64/59/59 72/60/60 71/57/57
f 40/42/42 37/41/41 46/47/47 44/61/61
f 37/41/41 49/88/62 54/48/48 46/47/47
f 60/54/54 55/53/53 64/59/59 61/82/63
f 55/53/53 67/64/64 72/60/60 64/59/59
f 19/17/17 24/79/20 58/52/52 51/77/65
f 52/46/46 63/75/66 4/16/16 3/73/15
f 51/65/65 39/37/37 20/25/25 19/78/17
f 39/37/37 41/40/40 21/27/27 20/25/25
f 43/67/67 48/43/43 2/34/34 1/33/33
f 48/43/43 52/74/46 3/15/15 2/34/34
f 69/68/68 57/49/49 23/30/30 22/29/29
f 57/49/49 58/80/52 24/20/20 23/30/30
f 63/66/66 66/55/55 5/35/35 4/76/16
f 66/55/55 70/58/58 6/36/36 5/35/35
f 43/67/67 1/33/33 27/22/22 9/1/1 10/4/4 33/28/28 21/27/27 41/40/40 42/39/39 40/42/42 44/61/61 45/69/69
f 67/64/64 68/70/70 69/68/68 22/29/29 34/32/32 18/12/12 13/11/11 28/24/24 6/36/36 70/58/58 71/57/57 72/60/60
f 37/41/41 38/38/38 50/87/71 49/88/62
f 38/38/38 39/37/37 51/65/65 50/87/71
f 43/67/67 45/69/69 47/44/44 48/43/43
f 45/69/69 44/61/61 46/47/47 47/44/44
f 55/53/53 56/50/50 68/70/70 67/64/64
f 56/50/50 57/49/49 69/68/68 68/70/70
f 49/62/62 50/71/71 59/51/51 60/83/54
f 50/71/71 51/77/65 58/52/52 59/51/51
f 52/46/46 53/45/45 62/81/72 63/75/66
f 53/45/45 54/85/48 61/63/63 62/81/72
f 63/66/66 62/72/72 65/56/56 66/55/55
f 62/72/72 61/82/63 64/59/59 65/56/56
