# This file uses centimeters as units for non-parametric coordinates.

g default
v -6.392010 0.179863 2.837711
v -5.682671 0.179863 3.547050
v -6.037338 0.179863 3.452019
v -6.296974 0.179863 3.192383
v 6.392010 0.179863 2.837711
v 6.296974 0.179863 3.192383
v 6.037338 0.179863 3.452019
v 5.682671 0.179863 3.547050
v -6.392010 0.179863 -2.837711
v -6.296974 0.179863 -3.192383
v -6.037338 0.179863 -3.452019
v -5.682671 0.179863 -3.547050
v 6.392010 0.179863 -2.837711
v 5.682671 0.179863 -3.547050
v 6.037338 0.179863 -3.452019
v 6.296974 0.179863 -3.192383
v 5.869869 0.905731 -3.244156
v 6.122303 0.905731 -3.000156
v 5.525040 0.905731 -3.333469
v -5.525040 0.905731 -3.333469
v -5.869869 0.905731 -3.244156
v -6.122303 0.905731 -3.000156
v -6.214703 0.905731 -2.666840
v -6.214703 0.905731 2.666843
v -6.122303 0.905731 3.000156
v -5.869869 0.905731 3.244156
v -5.525040 0.905731 3.333469
v 5.525040 0.905731 3.333469
v 5.869869 0.905731 3.244156
v 6.122303 0.905731 3.000156
v 6.214703 0.905731 2.666843
v 6.214703 0.905731 -2.666843
v 5.647743 0.775433 -3.100227
v 5.890625 0.775433 -2.867050
v 5.315964 0.775433 -3.185574
v -5.315964 0.775433 -3.185574
v -5.647743 0.775433 -3.100227
v -5.890625 0.775433 -2.867050
v -5.979527 0.775433 -2.548523
v -5.979527 0.775433 2.548527
v -5.890625 0.775433 2.867050
v -5.647743 0.775433 3.100227
v -5.315964 0.775433 3.185577
v 5.315964 0.775433 3.185577
v 5.647743 0.775433 3.100227
v 5.890625 0.775433 2.867050
v 5.979527 0.775433 2.548527
v 5.979527 0.775433 -2.548523
v -6.392010 0.733856 2.837711
v -6.303364 0.874233 2.752285
v -6.392010 0.733856 -2.837711
v -6.308674 0.872349 -2.757401
v -5.682671 0.733067 3.547050
v -5.616570 0.869156 3.457489
v 5.682671 0.733067 3.547050
v 5.613178 0.870510 3.452896
v 6.392010 0.733856 2.837711
v 6.308674 0.872349 2.757401
v 6.392010 0.733856 -2.837711
v 6.303364 0.874233 -2.752285
v -5.682671 0.733067 -3.547050
v -5.613178 0.870510 -3.452896
v 5.682671 0.733067 -3.547050
v 5.616570 0.869156 -3.457489
v -6.296974 0.732071 3.192383
v -6.224571 0.868851 3.112701
v -6.037338 0.733444 3.452019
v -5.970238 0.867981 3.368732
v 6.037338 0.733444 3.452019
v 5.970238 0.867981 3.368732
v 6.296974 0.732071 3.192383
v 6.224567 0.868851 3.112701
v -6.296974 0.732071 -3.192383
v -6.224567 0.868851 -3.112698
v -6.037338 0.733444 -3.452019
v -5.970238 0.867981 -3.368732
v 6.037338 0.733444 -3.452019
v 5.970238 0.867981 -3.368732
v 6.296974 0.732071 -3.192383
v 6.224567 0.868851 -3.112698
vt 0.057049 0.563478
vt 0.060459 0.560053
vt 0.062458 0.649044
vt 0.058898 0.645776
vt 0.046625 0.457899
vt 0.048772 0.455694
vt 0.051729 0.454675
vt 0.065194 0.558720
vt 0.147406 0.444457
vt 0.217787 0.555291
vt 0.150511 0.444827
vt 0.222576 0.556410
vt 0.153076 0.446528
vt 0.226137 0.559678
vt 0.154516 0.449191
vt 0.152498 0.450765
vt 0.165772 0.494256
vt 0.163249 0.493817
vt 0.165754 0.497273
vt 0.227987 0.641975
vt 0.147825 0.529799
vt 0.224576 0.645401
vt 0.144705 0.529971
vt 0.219841 0.646732
vt 0.049865 0.513726
vt 0.067248 0.650162
vt 0.046978 0.512523
vt 0.044974 0.510188
vt 0.044315 0.507233
vt 0.046686 0.506269
vt 0.045780 0.460805
vt 0.048088 0.461917
vt 0.028365 0.368798
vt 0.166747 0.494778
vt 0.155168 0.448217
vt 0.028369 0.418213
vt 0.028349 0.365602
vt 0.151128 0.529462
vt 0.153782 0.445366
vt 0.028353 0.421409
vt 0.028383 0.694304
vt 0.145294 0.531215
vt 0.148451 0.531089
vt 0.028386 0.697501
vt 0.028375 0.595351
vt 0.048931 0.514666
vt 0.028378 0.592154
vt 0.045962 0.513533
vt 0.028381 0.585760
vt 0.043422 0.507993
vt 0.043979 0.511114
vt 0.028366 0.588957
vt 0.028378 0.536348
vt 0.044985 0.460037
vt 0.028362 0.533151
vt 0.045690 0.456912
vt 0.028362 0.427803
vt 0.148048 0.443298
vt 0.050824 0.453639
vt 0.028370 0.526756
vt 0.028365 0.424606
vt 0.151215 0.443579
vt 0.047821 0.454622
vt 0.028374 0.529954
vt 0.023566 0.694304
vt 0.023558 0.595351
vt 0.023546 0.427803
vt 0.023553 0.526757
vt 0.023558 0.585761
vt 0.023555 0.536347
vt 0.023545 0.418212
vt 0.023542 0.368799
vt 0.023541 0.365602
vt 0.023566 0.697501
vt 0.023558 0.592155
vt 0.023558 0.588958
vt 0.023546 0.421410
vt 0.023546 0.424605
vt 0.023554 0.529954
vt 0.023554 0.533150
vt 0.029822 0.529577
vt 0.029877 0.533196
vt 0.029782 0.420903
vt 0.029859 0.424505
vt 0.029794 0.588451
vt 0.029871 0.592053
vt 0.029834 0.697124
vt 0.029889 0.700743
vt 0.029788 0.526180
vt 0.029889 0.428176
vt 0.029918 0.536866
vt 0.029788 0.585061
vt 0.029902 0.595724
vt 0.029800 0.693728
vt 0.029776 0.417512
vt 0.029906 0.369317
vt 0.048874 0.459169
vt 0.055875 0.568078
vt 0.057519 0.641232
vt 0.047299 0.509062
vt 0.049212 0.511251
vt 0.051956 0.512343
vt 0.143193 0.527972
vt 0.146146 0.527853
vt 0.148687 0.526421
vt 0.229160 0.637376
vt 0.227516 0.564221
vt 0.151146 0.448246
vt 0.148709 0.446660
vt 0.145771 0.446358
vt 0.053729 0.456187
vt 0.050921 0.457104
vt 0.029778 0.366107
vt 0.166915 0.497986
vt 0.150482 0.528268
vt 0.023566 0.700698
vt 0.028374 0.700698
vt 0.163238 0.496688
vt 0.029867 0.530054
vt 0.029814 0.424983
vt 0.029859 0.526402
vt 0.029813 0.428408
vt 0.029791 0.533656
vt 0.029823 0.537091
vt 0.029881 0.588911
vt 0.029875 0.585273
vt 0.029826 0.592530
vt 0.029825 0.595956
vt 0.029879 0.697601
vt 0.029872 0.693949
vt 0.029868 0.421363
vt 0.029863 0.417726
vt 0.029811 0.369543
vn 0.000000 1.000000 0.000000
vn 0.000000 1.000000 0.000000
vn 0.000000 1.000000 0.000000
vn 0.000000 1.000000 0.000000
vn -0.376452 0.898895 0.224213
vn -0.263347 0.881301 0.392373
vn -0.215305 0.865812 0.451678
vn -0.375326 0.898885 0.226134
vn -0.013874 0.759857 0.649942
vn -0.002103 0.751798 0.659390
vn 0.013874 0.759857 0.649942
vn 0.002103 0.751798 0.659390
vn 0.263347 0.881301 0.392373
vn 0.215305 0.865812 0.451679
vn 0.376453 0.898895 0.224213
vn 0.375327 0.898884 0.226134
vn 0.480121 0.877127 0.011515
vn 0.482428 0.875917 0.005653
vn 0.480121 0.877127 -0.011515
vn 0.482428 0.875917 -0.005653
vn 0.376452 0.898895 -0.224214
vn 0.375326 0.898884 -0.226135
vn 0.263348 0.881301 -0.392374
vn 0.215307 0.865811 -0.451679
vn 0.013875 0.759850 -0.649951
vn 0.002103 0.751790 -0.659400
vn -0.013875 0.759850 -0.649951
vn -0.002103 0.751790 -0.659400
vn -0.263348 0.881301 -0.392374
vn -0.215307 0.865811 -0.451679
vn -0.376452 0.898895 -0.224214
vn -0.375326 0.898884 -0.226135
vn -0.480121 0.877127 -0.011515
vn -0.482428 0.875917 -0.005653
vn -0.480121 0.877127 0.011515
vn -0.482428 0.875917 0.005652
vn -0.846694 0.531657 0.021207
vn -0.766834 0.641777 0.009316
vn -0.766466 0.642219 -0.009144
vn -0.847356 0.530622 -0.020688
vn -0.673320 0.615346 0.409865
vn -0.536220 0.791736 0.292613
vn -0.534282 0.792213 -0.294857
vn -0.673976 0.611627 -0.414329
vn -0.009584 0.559976 0.828453
vn -0.004592 0.705180 0.709013
vn -0.289867 0.806384 0.515482
vn -0.401992 0.622100 0.671859
vn 0.009793 0.560367 0.828187
vn 0.004667 0.704809 0.709382
vn 0.398078 0.625597 0.670942
vn 0.288361 0.805889 0.517099
vn 0.847357 0.530621 0.020688
vn 0.766465 0.642221 0.009144
vn 0.534283 0.792212 0.294859
vn 0.673981 0.611622 0.414329
vn 0.846694 0.531658 -0.021208
vn 0.766835 0.641777 -0.009316
vn 0.673315 0.615355 -0.409861
vn 0.536218 0.791737 -0.292612
vn -0.009793 0.560367 -0.828187
vn -0.004667 0.704809 -0.709382
vn 0.004592 0.705180 -0.709013
vn 0.009584 0.559976 -0.828453
vn -0.398078 0.625599 -0.670939
vn -0.288363 0.805888 -0.517099
vn 0.289869 0.806384 -0.515482
vn 0.401992 0.622105 -0.671854
vn -0.008116 0.000000 0.999967
vn -0.008111 0.000000 0.999967
vn 0.008111 0.000000 0.999967
vn 0.008116 0.000000 0.999967
vn -0.008111 0.000000 -0.999967
vn -0.008116 0.000000 -0.999967
vn 0.008116 0.000000 -0.999967
vn 0.008111 0.000000 -0.999967
vn 0.999877 0.000000 0.015689
vn 0.999876 0.000000 0.015734
vn 0.999876 0.000000 -0.015734
vn 0.999877 0.000000 -0.015689
vn -0.999877 0.000000 -0.015689
vn -0.999876 0.000000 -0.015734
vn -0.999876 0.000000 0.015734
vn -0.999877 0.000000 0.015689
vn -0.866050 0.000000 0.499958
vn -0.866098 0.000000 0.499875
vn -0.499895 0.000000 0.866086
vn -0.499694 0.000000 0.866202
vn 0.499895 0.000000 0.866086
vn 0.499694 0.000000 0.866202
vn 0.866050 0.000000 0.499958
vn 0.866098 0.000000 0.499875
vn -0.866097 0.000000 -0.499875
vn -0.866050 0.000000 -0.499958
vn -0.499694 0.000000 -0.866202
vn -0.499895 0.000000 -0.866086
vn 0.499694 0.000000 -0.866202
vn 0.499895 0.000000 -0.866086
vn 0.866097 0.000000 -0.499875
vn 0.866050 0.000000 -0.499958
vn 0.110229 0.972225 -0.206465
vn 0.217033 0.968825 -0.119475
vn 0.001285 0.959404 -0.282032
vn -0.001262 0.959399 -0.282048
vn -0.110694 0.972242 -0.206139
vn -0.217786 0.968736 -0.118830
vn -0.332245 0.943189 -0.002831
vn -0.332308 0.943167 0.002758
vn -0.217030 0.968826 0.119472
vn -0.110227 0.972226 0.206463
vn -0.001285 0.959404 0.282032
vn 0.001262 0.959399 0.282048
vn 0.110693 0.972242 0.206138
vn 0.217785 0.968736 0.118830
vn 0.332244 0.943189 0.002831
vn 0.332308 0.943167 -0.002758
vn 0.000000 1.000000 0.000000
vn 0.000000 1.000000 0.000000
vn 0.000000 1.000000 0.000000
vn 0.000000 1.000000 0.000000
vn 0.000000 1.000000 0.000000
vn 0.000000 1.000000 0.000000
vn 0.000000 1.000000 0.000000
vn 0.000000 1.000000 0.000000
vn 0.000000 1.000000 0.000000
vn 0.000000 1.000000 0.000000
vn 0.000000 1.000000 0.000000
vn 0.000000 1.000000 0.000000
s 1
g pCube100
f 34/1/1 33/2/2 45/3/3 46/4/4
s 2
f 18/5/5 17/6/6 33/112/7 34/97/8
f 17/6/6 19/7/9 35/111/10 33/112/7
f 19/7/9 20/9/11 36/110/12 35/111/10
f 20/9/11 21/11/13 37/109/14 36/110/12
f 21/11/13 22/13/15 38/108/16 37/109/14
f 22/13/15 23/15/17 39/16/18 38/108/16
f 23/15/17 24/17/19 40/18/20 39/16/18
f 24/17/19 25/19/21 41/118/22 40/18/20
f 25/115/21 26/21/23 42/104/24 41/105/22
f 26/21/23 27/23/25 43/103/26 42/104/24
f 27/23/25 28/25/27 44/102/28 43/103/26
f 28/25/27 29/27/29 45/101/30 44/102/28
f 29/27/29 30/28/31 46/100/32 45/101/30
f 30/28/31 31/29/33 47/30/34 46/100/32
f 31/29/33 32/31/35 48/32/36 47/30/34
f 32/31/35 18/5/5 34/97/8 48/32/36
s 3
f 49/33/37 50/133/38 52/95/39 51/36/40
f 50/96/38 49/33/37 65/37/41 66/113/42
f 51/36/40 52/132/39 74/83/43 73/40/44
f 53/41/45 54/130/46 68/87/47 67/44/48
f 54/94/46 53/41/45 55/45/49 56/128/50
f 56/93/50 55/45/49 69/47/51 70/127/52
f 57/49/53 58/126/54 72/85/55 71/52/56
f 58/92/54 57/49/53 59/53/57 60/124/58
f 60/91/58 59/53/57 79/55/59 80/123/60
f 61/57/61 62/122/62 64/89/63 63/60/64
f 62/90/62 61/57/61 75/61/65 76/120/66
f 63/60/64 64/121/63 78/81/67 77/64/68
f 66/88/42 65/117/41 67/44/48 68/129/47
f 70/86/52 69/47/51 71/52/56 72/125/55
f 73/40/44 74/131/43 76/84/66 75/61/65
f 77/64/68 78/119/67 80/82/60 79/55/59
s 7
f 53/41/69 2/65/70 8/66/71 55/45/72
f 12/67/73 61/57/74 63/60/75 14/68/76
f 57/49/77 5/69/78 13/70/79 59/53/80
f 51/36/81 9/71/82 1/72/83 49/33/84
f 1/72/83 4/73/85 65/37/86 49/33/84
f 4/116/85 3/74/87 67/44/88 65/117/86
f 3/74/87 2/65/70 53/41/69 67/44/88
f 8/66/71 7/75/89 69/47/90 55/45/72
f 7/75/89 6/76/91 71/52/92 69/47/90
f 6/76/91 5/69/78 57/49/77 71/52/92
f 51/36/81 73/40/93 10/77/94 9/71/82
f 73/40/93 75/61/95 11/78/96 10/77/94
f 75/61/95 61/57/74 12/67/73 11/78/96
f 63/60/75 77/64/97 15/79/98 14/68/76
f 77/64/97 79/55/99 16/80/100 15/79/98
f 79/55/99 59/53/80 13/70/79 16/80/100
s 3
f 80/56/60 78/63/67 17/6/101 18/5/102
f 78/63/67 64/59/63 19/7/103 17/6/101
f 64/59/63 62/58/62 20/9/104 19/7/103
f 62/58/62 76/62/66 21/11/105 20/9/104
f 76/62/66 74/39/43 22/13/106 21/11/105
f 74/39/43 52/35/39 23/15/107 22/13/106
f 52/35/39 50/34/38 24/17/108 23/15/107
f 50/34/38 66/114/42 25/19/109 24/17/108
f 66/38/42 68/43/47 26/21/110 25/115/109
f 68/43/47 54/42/46 27/23/111 26/21/110
f 54/42/46 56/46/50 28/25/112 27/23/111
f 56/46/50 70/48/52 29/27/113 28/25/112
f 70/48/52 72/51/55 30/28/114 29/27/113
f 72/51/55 58/50/54 31/29/115 30/28/114
f 58/50/54 60/54/58 32/31/116 31/29/115
f 60/54/58 80/56/60 18/5/102 32/31/116
s 1
f 34/1/1 46/4/4 47/99/117 48/98/118
f 41/20/119 38/14/120 39/107/121 40/106/122
f 45/3/3 33/2/2 35/8/123 44/26/124
f 43/24/125 36/10/126 37/12/127 42/22/128
f 42/22/128 37/12/127 38/14/120 41/20/119
f 44/26/124 35/8/123 36/10/126 43/24/125
