# This file uses meters as units for non-parametric coordinates.

g default
v 7.372894 281.412903 128.674728
v 7.372894 281.412903 -128.674728
v 7.372894 124.913055 -128.674728
v 7.372894 124.913055 128.674728
v 6.222137 277.405273 137.653030
v 6.222137 281.057373 136.674454
v 6.222137 283.730865 134.000946
v 6.222137 284.709442 130.348862
v 6.222137 268.570892 127.664917
v 6.222137 272.222961 126.686340
v 6.222137 274.896484 124.012833
v 6.222137 275.875061 120.360748
v 6.222137 137.081177 127.664917
v 6.222137 133.429092 126.686340
v 6.222137 130.755585 124.012833
v 6.222137 129.777008 120.360748
v 6.222137 128.246826 137.653030
v 6.222137 124.594742 136.674454
v 6.222137 121.921227 134.000946
v 6.222137 120.942650 130.348862
v 6.222137 284.709442 -129.912842
v 6.222137 283.731720 -133.561798
v 6.222137 281.060516 -136.233002
v 6.222137 277.411591 -137.210724
v 6.222137 275.875061 -120.861061
v 6.222137 274.897400 -124.509712
v 6.222137 272.226379 -127.180733
v 6.222137 268.577728 -128.158386
v 6.222137 129.777008 -120.860512
v 6.222137 130.754730 -124.509453
v 6.222137 133.425934 -127.180656
v 6.222137 137.074875 -128.158386
v 6.222137 120.942650 -129.913391
v 6.222137 121.920303 -133.562073
v 6.222137 124.591309 -136.233063
v 6.222137 128.239975 -137.210724
v 12.396271 283.730865 134.000946
v 13.825165 282.449738 133.261292
v 12.396271 284.709442 130.348862
v 13.825165 283.280548 130.160736
v 12.396271 281.057373 136.674454
v 13.825165 280.317719 135.393341
v 13.825165 277.217163 136.224121
v 12.396271 277.405273 137.653030
v 12.396271 268.570892 127.664917
v 13.825165 268.759003 129.093826
v 12.396271 272.222961 126.686340
v 13.825165 272.962616 127.967461
v 12.396271 274.896484 124.012833
v 13.825165 276.177612 124.752487
v 13.825165 277.303955 120.548866
v 12.396271 275.875061 120.360748
v 12.396271 130.755585 124.012833
v 13.825165 129.474472 124.752487
v 12.396271 129.777008 120.360748
v 13.825165 128.348099 120.548866
v 12.396271 133.429092 126.686340
v 13.825165 132.689438 127.967461
v 13.825165 136.893051 129.093826
v 12.396271 137.081177 127.664917
v 12.396271 128.246826 137.653030
v 13.825165 128.434952 136.224121
v 12.396271 124.594742 136.674454
v 13.825165 125.334396 135.393341
v 12.396271 121.921227 134.000946
v 13.825165 123.202347 133.261292
v 13.825165 122.371552 130.160736
v 12.396271 120.942650 130.348862
v 12.396240 281.060730 -136.233032
v 13.825165 280.321136 -134.951935
v 12.396271 277.412018 -137.210724
v 13.825165 277.223999 -135.781799
v 12.396240 283.731781 -133.562012
v 13.825165 282.450653 -132.822388
v 13.825165 283.280548 -129.725250
v 12.396271 284.709442 -129.913269
v 13.825165 272.965790 -128.461792
v 12.396240 272.226196 -127.180672
v 13.825165 268.765320 -129.587280
v 12.396271 268.577301 -128.158386
v 13.825165 276.178467 -125.249123
v 12.396240 274.897339 -124.509499
v 12.396271 275.875061 -120.860619
v 13.825165 277.303955 -121.048622
v 12.396271 133.425705 -127.180717
v 13.825165 132.686005 -128.461823
v 12.396271 137.074432 -128.158386
v 13.825165 136.886215 -129.587280
v 12.396271 130.754684 -124.509666
v 13.825165 129.473572 -125.249352
v 13.825165 128.348099 -121.049171
v 12.396271 129.777008 -120.860954
v 13.825165 125.331230 -134.951874
v 12.396271 124.591530 -136.233002
v 13.825165 128.428619 -135.781799
v 12.396271 128.240402 -137.210724
v 13.825165 123.201477 -132.822144
v 12.396271 121.920364 -133.561829
v 12.396271 120.942650 -129.912933
v 13.825165 122.371552 -129.724731
vt 0.759735 0.000000
vt 0.000000 0.000104
vt 0.759798 0.462012
vt 0.000063 0.462115
vt 0.301626 0.736173
vt 0.303387 0.733256
vt 0.308596 0.734847
vt 0.308156 0.738204
vt 0.296816 0.731391
vt 0.299701 0.729653
vt 0.741607 0.734718
vt 0.742048 0.738075
vt 0.294713 0.724912
vt 0.298071 0.724463
vt 0.294637 0.475617
vt 0.297993 0.476064
vt 0.313205 0.709681
vt 0.309864 0.710118
vt 0.309820 0.490412
vt 0.313163 0.490849
vt 0.314822 0.715664
vt 0.311947 0.717329
vt 0.319259 0.720004
vt 0.317580 0.722932
vt 0.325259 0.721582
vt 0.324839 0.724932
vt 0.726519 0.721460
vt 0.726943 0.724808
vt 0.319111 0.480379
vt 0.317463 0.477473
vt 0.324674 0.475411
vt 0.325097 0.478758
vt 0.314765 0.484824
vt 0.311857 0.483128
vt 0.726735 0.475296
vt 0.726312 0.478646
vt 0.296699 0.469057
vt 0.299605 0.470831
vt 0.301520 0.464253
vt 0.303245 0.467148
vt 0.308000 0.462155
vt 0.308438 0.465513
vt 0.741847 0.462015
vt 0.741403 0.465371
vt 0.753335 0.731161
vt 0.750428 0.729388
vt 0.752035 0.724156
vt 0.755390 0.724603
vt 0.748519 0.735965
vt 0.746793 0.733070
vt 0.751954 0.475775
vt 0.755312 0.475328
vt 0.739749 0.717086
vt 0.736836 0.715396
vt 0.738431 0.709378
vt 0.741774 0.709813
vt 0.734151 0.722740
vt 0.732496 0.719841
vt 0.738356 0.490539
vt 0.741697 0.490102
vt 0.736740 0.484563
vt 0.739628 0.482903
vt 0.732309 0.480227
vt 0.733994 0.477302
vt 0.750314 0.470585
vt 0.753202 0.468850
vt 0.746622 0.466978
vt 0.748386 0.464062
vt 0.874489 0.432912
vt 0.884764 0.432910
vt 0.884805 0.651745
vt 0.874530 0.651747
vt 0.012586 0.873011
vt 0.012585 0.862736
vt 0.260823 0.862703
vt 0.260824 0.872978
vt 0.279702 0.872976
vt 0.279700 0.862701
vt 0.712844 0.862643
vt 0.712845 0.872919
vt 0.884761 0.414032
vt 0.874486 0.414034
vt 0.874410 0.012575
vt 0.884685 0.012574
vt 0.888664 0.000002
vt 0.898939 0.000000
vt 0.899015 0.401459
vt 0.888740 0.401460
vt 0.969995 0.738081
vt 0.969997 0.748356
vt 0.536853 0.748415
vt 0.536852 0.738140
vt 0.899053 0.639176
vt 0.888777 0.639178
vt 0.888743 0.420321
vt 0.899018 0.420319
vt 0.731706 0.872916
vt 0.731704 0.862641
vt 0.979964 0.862615
vt 0.979966 0.872891
vt 0.273409 0.872977
vt 0.273408 0.862701
vt 0.267117 0.872978
vt 0.267115 0.862702
vt 0.874487 0.420327
vt 0.884762 0.420325
vt 0.874488 0.426619
vt 0.884763 0.426617
vt 0.874533 0.670624
vt 0.874532 0.664331
vt 0.884808 0.664330
vt 0.884809 0.670622
vt 0.874531 0.658039
vt 0.884807 0.658037
vt 0.976289 0.748355
vt 0.976288 0.738080
vt 0.006294 0.873012
vt 0.006292 0.862737
vt 0.000001 0.873013
vt 0.000000 0.862738
vt 0.725419 0.872917
vt 0.725417 0.862642
vt 0.719132 0.872918
vt 0.719131 0.862643
vt 0.899054 0.645463
vt 0.888778 0.645464
vt 0.884683 0.000000
vt 0.884684 0.006287
vt 0.874409 0.006289
vt 0.874407 0.000002
vt 0.888742 0.414034
vt 0.899018 0.414032
vt 0.888741 0.407747
vt 0.899016 0.407746
vt 0.517991 0.738142
vt 0.524278 0.738141
vt 0.524280 0.748417
vt 0.517993 0.748417
vt 0.530565 0.738141
vt 0.530566 0.748416
vn 1.000000 0.000000 0.000000
vn 1.000000 0.000000 0.000000
vn 1.000000 0.000000 0.000000
vn 1.000000 0.000000 0.000000
vn 0.719255 0.602980 0.345092
vn 0.719255 0.602979 0.345092
vn 0.707265 0.706945 0.002428
vn 0.707265 0.706945 0.002428
vn 0.719254 0.345094 0.602979
vn 0.719254 0.345094 0.602979
vn 0.707264 0.706945 -0.002425
vn 0.707264 0.706945 -0.002425
vn 0.707377 0.004197 0.706824
vn 0.707377 0.004197 0.706824
vn 0.707378 -0.004197 0.706823
vn 0.707377 -0.004197 0.706823
vn 0.707458 -0.005485 -0.706734
vn 0.707458 -0.005485 -0.706734
vn 0.707458 0.005485 -0.706734
vn 0.707458 0.005485 -0.706734
vn 0.719252 -0.349280 -0.600567
vn 0.719252 -0.349280 -0.600567
vn 0.719255 -0.600563 -0.349281
vn 0.719255 -0.600563 -0.349280
vn 0.707303 -0.706904 -0.003032
vn 0.707303 -0.706904 -0.003033
vn 0.707303 -0.706904 0.003030
vn 0.707303 -0.706904 0.003030
vn 0.719255 0.600564 -0.349279
vn 0.719255 0.600564 -0.349279
vn 0.707307 0.706900 -0.003032
vn 0.707307 0.706900 -0.003033
vn 0.719253 0.349280 -0.600565
vn 0.719253 0.349280 -0.600565
vn 0.707307 0.706900 0.003030
vn 0.707307 0.706900 0.003030
vn 0.719255 -0.345093 0.602978
vn 0.719255 -0.345093 0.602979
vn 0.719255 -0.602978 0.345093
vn 0.719255 -0.602978 0.345093
vn 0.707266 -0.706944 0.002428
vn 0.707266 -0.706943 0.002428
vn 0.707266 -0.706944 -0.002425
vn 0.707266 -0.706944 -0.002425
vn 0.719242 0.345097 -0.602991
vn 0.719242 0.345101 -0.602989
vn 0.707381 0.004193 -0.706820
vn 0.707381 0.004193 -0.706820
vn 0.719243 0.602990 -0.345098
vn 0.719243 0.602988 -0.345101
vn 0.707382 -0.004193 -0.706819
vn 0.707382 -0.004193 -0.706819
vn 0.719243 -0.349284 0.600575
vn 0.719243 -0.349289 0.600572
vn 0.707455 -0.005481 0.706737
vn 0.707455 -0.005480 0.706737
vn 0.719243 -0.600576 0.349282
vn 0.719243 -0.600574 0.349285
vn 0.707456 0.005480 0.706736
vn 0.707456 0.005480 0.706736
vn 0.719259 0.349278 0.600559
vn 0.719259 0.349282 0.600557
vn 0.719260 0.600560 0.349276
vn 0.719260 0.600558 0.349279
vn 0.719262 -0.345086 -0.602974
vn 0.719262 -0.345090 -0.602972
vn 0.719259 -0.602978 -0.345086
vn 0.719259 -0.602976 -0.345089
vn 0.000000 -0.007241 -0.999974
vn 0.000000 -0.007241 -0.999974
vn 0.000000 0.007241 -0.999974
vn 0.000000 0.007241 -0.999974
vn 0.000000 -0.006404 0.999979
vn 0.000000 -0.006404 0.999979
vn 0.000000 0.006404 0.999979
vn 0.000000 0.006404 0.999979
vn 1.000000 -0.000000 0.000000
vn 1.000000 0.000000 0.000000
vn 1.000000 0.000000 0.000000
vn 1.000000 -0.000000 0.000000
vn 0.000000 0.999993 0.003708
vn 0.000000 0.999993 0.003708
vn -0.000000 0.999993 -0.003705
vn -0.000000 0.999993 -0.003704
vn 1.000000 0.000000 0.000000
vn 1.000000 0.000000 0.000000
vn 1.000000 0.000000 0.000000
vn 1.000000 0.000000 0.000000
vn 0.000000 -0.999992 -0.003996
vn 0.000000 -0.999992 -0.003996
vn -0.000000 -0.999992 0.003993
vn -0.000000 -0.999992 0.003992
vn 0.000000 0.999992 -0.003996
vn 0.000000 0.999992 -0.003996
vn 0.000000 0.999992 0.003993
vn 0.000000 0.999992 0.003992
vn 1.000000 0.000000 0.000000
vn 1.000000 0.000000 0.000000
vn 1.000000 0.000000 0.000000
vn 1.000000 0.000000 0.000000
vn 0.000000 -0.999993 0.003708
vn 0.000000 -0.999993 0.003708
vn 0.000000 -0.999993 -0.003705
vn 0.000000 -0.999993 -0.003704
vn 1.000000 -0.000000 0.000000
vn 1.000000 -0.000000 0.000000
vn 1.000000 0.000000 0.000000
vn 1.000000 0.000000 0.000000
vn -0.000000 -0.007233 0.999974
vn -0.000000 -0.007234 0.999974
vn 0.000001 0.007233 0.999974
vn 0.000001 0.007235 0.999974
vn -0.000000 0.006397 -0.999980
vn -0.000000 0.006398 -0.999980
vn 0.000000 -0.006397 -0.999980
vn 0.000000 -0.006398 -0.999980
vn 0.000000 0.866025 0.500000
vn 0.000000 0.866025 0.500000
vn 0.000000 0.707107 0.707107
vn 0.000000 0.707107 0.707107
vn 0.000000 0.258820 0.965926
vn 0.000000 0.258820 0.965926
vn 0.000000 -0.965926 -0.258820
vn 0.000000 -0.965926 -0.258820
vn 0.000000 -0.500000 -0.866025
vn 0.000000 -0.500000 -0.866025
vn 0.000000 -0.707104 -0.707109
vn 0.000000 -0.707104 -0.707109
vn 1.000000 0.000000 0.000000
vn 1.000000 0.000000 0.000000
vn 1.000000 -0.000000 0.000000
vn 1.000000 -0.000000 0.000000
vn 0.000000 0.866025 -0.500000
vn 0.000000 0.866025 -0.500000
vn 0.000000 0.500000 -0.866025
vn 0.000000 0.500000 -0.866025
vn 0.000000 -0.965926 0.258820
vn 0.000000 -0.965926 0.258820
vn 0.000000 -0.500000 0.866025
vn 0.000000 -0.500000 0.866025
vn 0.000000 -0.707107 0.707107
vn 0.000000 -0.707107 0.707107
vn 1.000000 0.000000 0.000000
vn 1.000000 0.000000 0.000000
vn 1.000000 0.000000 0.000000
vn 1.000000 0.000000 0.000000
vn -0.000023 0.499996 -0.866028
vn -0.000023 0.500003 -0.866024
vn -0.000031 0.707105 -0.707109
vn -0.000031 0.707105 -0.707109
vn -0.000018 0.965926 -0.258820
vn -0.000018 0.965926 -0.258820
vn 1.000000 -0.000000 0.000000
vn 1.000000 -0.000000 0.000000
vn 1.000000 0.000000 0.000000
vn 1.000000 0.000000 0.000000
vn -0.000017 -0.258819 0.965926
vn -0.000017 -0.258819 0.965926
vn -0.000029 -0.707108 0.707106
vn -0.000024 -0.866028 0.499996
vn -0.000024 -0.866023 0.500004
vn -0.000029 -0.707108 0.707106
vn 0.000019 0.258818 0.965926
vn 0.000019 0.258818 0.965926
vn 0.000031 0.707108 0.707105
vn 0.000025 0.866029 0.499994
vn 0.000025 0.866025 0.500001
vn 0.000031 0.707108 0.707105
vn 1.000000 0.000000 0.000000
vn 1.000000 0.000000 0.000000
vn 1.000000 0.000000 0.000000
vn 1.000000 0.000000 0.000000
vn 0.000027 -0.499996 -0.866028
vn 0.000027 -0.500004 -0.866023
vn 0.000034 -0.707106 -0.707107
vn 0.000034 -0.707106 -0.707107
vn 0.000019 -0.965927 -0.258816
vn 0.000019 -0.965927 -0.258816
s off
g whiteboard
f 1/1/1 4/3/2 3/4/3 2/2/4
s 1
f 37/5/5 38/6/6 40/7/7 39/8/8
f 38/6/6 37/5/5 41/9/9 42/10/10
f 39/8/8 40/7/7 75/11/11 76/12/12
f 42/10/10 41/9/9 44/13/13 43/14/14
f 43/14/14 44/13/13 61/15/15 62/16/16
s 2
f 45/17/17 46/18/18 59/19/19 60/20/20
f 46/18/18 45/17/17 47/21/21 48/22/22
f 48/22/22 47/21/21 49/23/23 50/24/24
f 50/24/24 49/23/23 52/25/25 51/26/26
f 51/26/26 52/25/25 83/27/27 84/28/28
f 53/29/29 54/30/30 56/31/31 55/32/32
f 54/30/30 53/29/29 57/33/33 58/34/34
f 55/32/32 56/31/31 91/35/35 92/36/36
f 58/34/34 57/33/33 60/20/20 59/19/19
s 1
f 62/16/16 61/15/15 63/37/37 64/38/38
f 64/38/38 63/37/37 65/39/39 66/40/40
f 66/40/40 65/39/39 68/41/41 67/42/42
f 67/42/42 68/41/41 99/43/43 100/44/44
f 69/45/45 70/46/46 72/47/47 71/48/48
f 70/46/46 69/45/45 73/49/49 74/50/50
f 71/48/48 72/47/47 95/51/51 96/52/52
f 74/50/50 73/49/49 76/12/12 75/11/11
s 2
f 77/53/53 78/54/54 80/55/55 79/56/56
f 78/54/54 77/53/53 81/57/57 82/58/58
f 79/56/56 80/55/55 87/59/59 88/60/60
f 82/58/58 81/57/57 84/28/28 83/27/27
f 85/61/61 86/62/62 88/60/60 87/59/59
f 86/62/62 85/61/61 89/63/63 90/64/64
f 90/64/64 89/63/63 92/36/36 91/35/35
s 1
f 93/65/65 94/66/66 96/52/52 95/51/51
f 94/66/66 93/65/65 97/67/67 98/68/68
f 98/68/68 97/67/67 100/44/44 99/43/43
s 6
f 9/69/69 45/70/70 60/71/71 13/72/72
s 7
f 17/73/73 61/74/74 44/75/75 5/76/76
s 8
f 43/14/77 62/16/78 59/19/79 46/18/80
s 9
f 8/77/81 39/78/82 76/79/83 21/80/84
s 8
f 40/7/85 51/26/86 84/28/87 75/11/88
s 11
f 52/81/89 12/82/90 25/83/91 83/84/92
s 6
f 16/85/93 55/86/94 92/87/95 29/88/96
s 8
f 56/31/97 67/42/98 100/44/99 91/35/100
s 14
f 68/89/101 20/90/102 33/91/103 99/92/104
s 8
f 72/47/105 79/56/106 88/60/107 95/51/108
s 16
f 80/93/109 28/94/110 32/95/111 87/96/112
s 17
f 24/97/113 71/98/114 96/99/115 36/100/116
s 9
f 8/77/81 7/101/117 37/102/118 39/78/82
f 7/101/117 6/103/119 41/104/120 37/102/118
s 7
f 6/103/121 5/76/76 44/75/75 41/104/122
s 11
f 11/105/123 12/82/90 52/81/89 49/106/124
s 6
f 9/69/69 10/107/125 47/108/126 45/70/70
f 10/107/125 11/105/127 49/106/128 47/108/126
s 8
f 40/7/85 38/6/129 50/24/130 51/26/86
f 38/6/129 42/10/131 48/22/132 50/24/130
f 42/10/131 43/14/77 46/18/80 48/22/132
s 6
f 16/109/93 15/110/133 53/111/134 55/112/94
f 15/110/133 14/113/135 57/114/136 53/111/134
f 14/113/135 13/72/72 60/71/71 57/114/136
s 14
f 19/115/137 20/90/102 68/89/101 65/116/138
s 7
f 17/73/73 18/117/139 63/118/140 61/74/74
f 18/117/139 19/119/141 65/120/142 63/118/140
s 8
f 56/31/97 54/30/143 66/40/144 67/42/98
f 54/30/143 58/34/145 64/38/146 66/40/144
f 58/34/145 59/19/79 62/16/78 64/38/146
s 17
f 24/97/113 23/121/147 69/122/148 71/98/114
f 23/121/147 22/123/149 73/124/150 69/122/148
s 9
f 22/123/151 21/80/84 76/79/83 73/124/152
s 8
f 72/47/105 70/46/153 77/53/154 79/56/106
f 70/46/153 74/50/155 81/57/156 77/53/154
f 74/50/155 75/11/88 84/28/87 81/57/156
s 16
f 80/93/109 78/125/157 27/126/158 28/94/110
s 11
f 78/127/159 82/128/160 26/129/161 27/130/162
f 82/128/160 83/84/92 25/83/91 26/129/161
s 16
f 32/95/111 31/131/163 85/132/164 87/96/112
s 6
f 31/131/165 30/133/166 89/134/167 85/132/168
f 30/133/166 29/88/96 92/87/95 89/134/167
s 8
f 88/60/107 86/62/169 93/65/170 95/51/108
f 86/62/169 90/64/171 97/67/172 93/65/170
f 90/64/171 91/35/100 100/44/99 97/67/172
s 17
f 96/135/115 94/136/173 35/137/174 36/138/116
f 94/136/173 98/139/175 34/140/176 35/137/174
s 14
f 98/139/177 99/92/104 33/91/103 34/140/178
